<svg xmlns="http://www.w3.org/2000/svg" viewBox="0 0 512 512" role="img" aria-label="MiShiro Orçamentos">
  <defs>
    <linearGradient id="bg" x1="88" x2="424" y1="72" y2="440" gradientUnits="userSpaceOnUse">
      <stop offset="0" stop-color="#7DD3C7"/>
      <stop offset="0.42" stop-color="#6A1B9A"/>
      <stop offset="1" stop-color="#2D0B40"/>
    </linearGradient>
    <linearGradient id="paper" x1="158" x2="356" y1="116" y2="396" gradientUnits="userSpaceOnUse">
      <stop offset="0" stop-color="#FFFFFF"/>
      <stop offset="1" stop-color="#EDE3F5"/>
    </linearGradient>
  </defs>
  <rect width="512" height="512" rx="128" fill="#0F0A18"/>
  <circle cx="120" cy="112" r="70" fill="#F4C86A" opacity="0.18"/>
  <circle cx="400" cy="410" r="92" fill="#7DD3C7" opacity="0.14"/>
  <rect x="78" y="78" width="356" height="356" rx="108" fill="url(#bg)"/>
  <path d="M158 118h140l58 58v220H158z" fill="url(#paper)"/>
  <path d="M298 118v60h58" fill="none" stroke="#6A1B9A" stroke-width="18" stroke-linejoin="round" opacity="0.72"/>
  <path d="M196 332 330 198l34 34-134 134-51 17z" fill="#2D0B40"/>
  <path d="M330 198 349 179c10-10 27-10 37 0l5 5c10 10 10 27 0 37l-27 27z" fill="#F4C86A"/>
  <path d="M196 332 179 383l51-17z" fill="#7DD3C7"/>
  <path d="M198 164h74M198 202h58M198 240h38" stroke="#2D0B40" stroke-width="15" stroke-linecap="round" opacity="0.72"/>
  <path d="M204 106l11 24 24 11-24 11-11 24-11-24-24-11 24-11z" fill="#F4C86A"/>
</svg>
